<svg width="38" height="25" viewBox="0 0 38 25" fill="none" xmlns="http://www.w3.org/2000/svg">
<path d="M35 0.100098H3C1.3 0.100098 0 1.4001 0 3.1001V21.1001C0 22.8001 1.4 24.1001 3 24.1001H35C36.7 24.1001 38 22.8001 38 21.1001V3.1001C38 1.4001 36.6 0.100098 35 0.100098Z" fill="#F3F5F6"/>
<path d="M35 1.1001C36.1 1.1001 37 2.0001 37 3.1001V21.1001C37 22.2001 36.1 23.1001 35 23.1001H3C1.9 23.1001 1 22.2001 1 21.1001V3.1001C1 2.0001 1.9 1.1001 3 1.1001H35Z" fill="#006FCF"/>
<path d="M8.971 10.3681L9.745 12.2441H8.203L8.971 10.3681ZM25.046 10.4461H22.069V11.2731H24.998V12.5121H22.075V13.4341H25.052V14.1731L27.129 11.9281L25.052 9.5881L25.046 10.4461ZM10.983 8.1061H14.978L15.865 10.0411L16.687 8.1001H27.057L28.135 9.2901L29.25 8.1001H34.013L30.494 11.9521L33.977 15.7801H29.143L28.065 14.5901L26.94 15.7801H10.03L9.536 14.5901H8.406L7.911 15.7801H4L7.286 8.1001H10.716L10.983 8.1061ZM19.646 9.1841H17.407L15.907 12.7201L14.282 9.1841H12.06V13.9941L10 9.1841H8.007L5.625 14.6961H7.18L7.674 13.5061H10.27L10.764 14.6961H13.484V10.7611L15.235 14.7021H16.425L18.165 10.7731V14.7031H19.623L19.647 9.1831L19.646 9.1841ZM28.986 11.9521L31.517 9.1841H29.695L28.094 10.9101L26.546 9.1841H20.652V14.7021H26.462L28.076 12.9641L29.624 14.7021H31.499L28.987 11.9521H28.986Z" fill="white"/>
</svg>
