<svg width="16" height="16" viewBox="0 0 16 16" fill="none" xmlns="http://www.w3.org/2000/svg">
<g clip-path="url(#clip0_1_633)">
<path d="M9.67051 16C10.2055 16 10.672 15.5335 10.672 14.9985V12.6596H11.3407C11.742 12.6596 12.0094 12.392 12.0094 11.9909V5.31055H3.99121V11.9909C3.99121 12.3922 4.2587 12.6596 4.65993 12.6596H5.32869V14.9986C5.32869 15.5335 5.79511 16.0001 6.33019 16.0001C6.86511 16.0001 7.33158 15.5335 7.33158 14.9986V12.6596H8.66907V14.9986C8.66901 15.5335 9.13554 16 9.67051 16Z" fill="black"/>
<path d="M13.6792 11.9909C14.2142 11.9909 14.6806 11.5244 14.6806 10.9894V6.31162C14.6806 5.77948 14.2142 5.31055 13.6792 5.31055C13.1442 5.31055 12.6777 5.77948 12.6777 6.31162V10.9894C12.6777 11.5244 13.1442 11.9909 13.6792 11.9909Z" fill="black"/>
<path d="M2.32073 11.9909C2.85575 11.9909 3.32223 11.5244 3.32223 10.9894V6.31162C3.32223 5.77948 2.85581 5.31055 2.32073 5.31055C1.78575 5.31055 1.31934 5.77948 1.31934 6.31162V10.9894C1.31934 11.5244 1.78575 11.9909 2.32073 11.9909Z" fill="black"/>
<path d="M11.2069 0.100908C11.0732 -0.033636 10.8742 -0.033636 10.7405 0.100908L9.8436 0.994825L9.80223 1.03615C9.2704 0.769837 8.67414 0.636841 8.01012 0.63556C8.00686 0.63556 8.00366 0.635453 8.0004 0.635453H8.0003C7.99693 0.635453 7.99384 0.63556 7.99047 0.63556C7.32651 0.636841 6.73025 0.769837 6.19848 1.03615L6.15699 0.994825L5.26014 0.100908C5.12634 -0.033636 4.92741 -0.033636 4.79372 0.100908C4.65993 0.234704 4.65993 0.433264 4.79372 0.566953L5.66132 1.43471C5.38176 1.62136 5.12827 1.84977 4.90782 2.11101C4.38005 2.73658 4.04343 3.55073 3.99714 4.43285C3.99671 4.44203 3.9958 4.45111 3.99538 4.46029C3.99255 4.52036 3.99121 4.58074 3.99121 4.64134H12.0094C12.0094 4.58074 12.008 4.52036 12.0053 4.46029C12.0048 4.45111 12.0039 4.44203 12.0034 4.43285C11.9572 3.55073 11.6205 2.73653 11.0927 2.11106C10.8724 1.84982 10.6188 1.62142 10.3392 1.43476L11.2069 0.567007C11.3407 0.433264 11.3407 0.234704 11.2069 0.100908ZM6.32891 3.47374C6.05224 3.47374 5.82795 3.24945 5.82795 2.97278C5.82795 2.69611 6.05224 2.47182 6.32891 2.47182C6.60558 2.47182 6.82987 2.69611 6.82987 2.97278C6.82987 3.24945 6.60558 3.47374 6.32891 3.47374ZM9.67174 3.47374C9.39507 3.47374 9.17078 3.24945 9.17078 2.97278C9.17078 2.69611 9.39507 2.47182 9.67174 2.47182C9.94841 2.47182 10.1727 2.69611 10.1727 2.97278C10.1727 3.24945 9.94841 3.47374 9.67174 3.47374Z" fill="black"/>
</g>
<defs>
<clipPath id="clip0_1_633">
<rect width="16" height="16" fill="white"/>
</clipPath>
</defs>
</svg>
