<svg width="14" height="12" viewBox="0 0 14 12" fill="none" xmlns="http://www.w3.org/2000/svg">
<path d="M13.5625 10.6243H13.2818V0.941406C13.2818 0.699799 13.0859 0.503906 12.8443 0.503906H10.1757C9.93411 0.503906 9.73822 0.699799 9.73822 0.941406V10.6243H8.7719V2.983C8.7719 2.74139 8.576 2.5455 8.3344 2.5455H5.66582C5.42421 2.5455 5.22832 2.74139 5.22832 2.983V10.6243H4.26199V5.0247C4.26199 4.7831 4.0661 4.5872 3.82449 4.5872H1.15591C0.914307 4.5872 0.718414 4.7831 0.718414 5.0247V10.6243H0.4375C0.195892 10.6243 0 10.8202 0 11.0618C0 11.3034 0.195892 11.4993 0.4375 11.4993H13.5625C13.8041 11.4993 14 11.3034 14 11.0618C14 10.8202 13.8041 10.6243 13.5625 10.6243ZM10.6131 1.37891H12.4067V10.6243H10.6131V1.37891ZM6.10332 10.6243V3.4205H7.8969V10.6243H6.10332ZM1.59341 5.4622H3.38699V10.6243H1.59341V5.4622Z" fill="#041E42"/>
</svg>
