<svg width="14" height="12" viewBox="0 0 14 12" fill="none" xmlns="http://www.w3.org/2000/svg">
<path fill-rule="evenodd" clip-rule="evenodd" d="M7.00153 4.42627C6.1136 4.42627 5.39355 5.14586 5.39355 6.03426C5.39355 6.92213 6.11367 7.64226 7.00153 7.64226C7.8894 7.64226 8.60953 6.92213 8.60953 6.03426C8.60953 5.14586 7.88953 4.42627 7.00153 4.42627ZM4.39355 6.03426C4.39355 4.59336 5.56151 3.42627 7.00153 3.42627C8.4416 3.42627 9.60953 4.59336 9.60953 6.03426C9.60953 7.4744 8.44167 8.64226 7.00153 8.64226C5.56141 8.64226 4.39355 7.4744 4.39355 6.03426Z" fill="#041E42"/>
<path fill-rule="evenodd" clip-rule="evenodd" d="M2.31669 2.39868C3.51296 1.38729 5.16683 0.666504 7.00098 0.666504C8.83478 0.666504 10.4886 1.38672 11.685 2.39787C12.8684 3.398 13.669 4.74249 13.669 6.03449C13.669 7.32649 12.8684 8.67095 11.685 9.67115C10.4886 10.6823 8.83478 11.4025 7.00098 11.4025C5.16683 11.4025 3.51296 10.6817 2.31669 9.67029C1.13351 8.66996 0.333008 7.32549 0.333008 6.03449C0.333008 4.74349 1.13351 3.39901 2.31669 2.39868ZM2.96233 3.16232C1.91318 4.04933 1.33301 5.13883 1.33301 6.03449C1.33301 6.93016 1.91318 8.01969 2.96233 8.90669C3.99839 9.78262 5.42852 10.4025 7.00098 10.4025C8.57325 10.4025 10.0034 9.78302 11.0395 8.90736C12.0886 8.02069 12.669 6.93116 12.669 6.03449C12.669 5.13783 12.0886 4.04833 11.0395 3.16163C10.0034 2.28594 8.57325 1.6665 7.00098 1.6665C5.42852 1.6665 3.99839 2.28638 2.96233 3.16232Z" fill="#041E42"/>
</svg>
