<svg width="10" height="10" viewBox="0 0 10 10" fill="none" xmlns="http://www.w3.org/2000/svg">
<path d="M9.97385 3.83573C9.90801 3.63325 9.72841 3.48989 9.51677 3.47074L6.63006 3.20866L5.48922 0.537725C5.40499 0.341494 5.21333 0.214844 5.00001 0.214844C4.78669 0.214844 4.59496 0.341494 4.51127 0.537725L3.37042 3.20866L0.48326 3.47074C0.271617 3.49027 0.0923996 3.63363 0.0261753 3.83573C-0.0396675 4.03822 0.0211398 4.26032 0.181207 4.4007L2.36333 6.3141L1.71993 9.14786C1.67286 9.35622 1.75373 9.57168 1.92661 9.69665C2.01954 9.76417 2.12872 9.79789 2.23828 9.79789C2.33243 9.79789 2.42665 9.77287 2.51081 9.72251L5.00001 8.23415L7.48876 9.72251C7.67134 9.83161 7.90091 9.82162 8.07341 9.69665C8.2463 9.57168 8.32717 9.35622 8.2801 9.14786L7.6367 6.3141L9.81882 4.4007C9.97881 4.26032 10.0397 4.03868 9.97385 3.83573Z" fill="#F5C34B"/>
</svg>
