<svg width="14" height="13" viewBox="0 0 14 13" fill="none" xmlns="http://www.w3.org/2000/svg">
<path d="M9.63541 0.584473C11.522 0.584473 13.051 2.13698 13.051 4.31051C13.051 8.65753 8.39345 11.1416 6.84094 12.0731C5.2884 11.1416 0.630859 8.65753 0.630859 4.31051C0.630859 2.13698 2.18337 0.584473 4.04638 0.584473C5.20145 0.584473 6.2199 1.20548 6.84094 1.82648C7.46188 1.20548 8.48036 0.584473 9.63541 0.584473ZM7.42094 10.2746C7.96799 9.92938 8.46174 9.58597 8.92377 9.21833C10.775 7.74655 11.8089 6.13811 11.8089 4.31051C11.8089 2.84493 10.8545 1.82648 9.63541 1.82648C8.96719 1.82648 8.24436 2.18045 7.71897 2.70458L6.84094 3.58269L5.9628 2.70458C5.43744 2.18045 4.71459 1.82648 4.04638 1.82648C2.84163 1.82648 1.87287 2.85487 1.87287 4.31051C1.87287 6.13876 2.90746 7.74655 4.75744 9.21833C5.22008 9.58597 5.71378 9.92938 6.26089 10.274C6.44654 10.3914 6.63039 10.5038 6.84094 10.6292C7.05141 10.5038 7.23527 10.3914 7.42094 10.2746Z" fill="#041E42"/>
</svg>
