<svg width="16" height="16" viewBox="0 0 16 16" fill="none" xmlns="http://www.w3.org/2000/svg">
<path fill-rule="evenodd" clip-rule="evenodd" d="M8.00153 6.42627C7.1136 6.42627 6.39355 7.14586 6.39355 8.03426C6.39355 8.92213 7.11367 9.64226 8.00153 9.64226C8.8894 9.64226 9.60953 8.92213 9.60953 8.03426C9.60953 7.14586 8.88953 6.42627 8.00153 6.42627ZM5.39355 8.03426C5.39355 6.59336 6.56151 5.42627 8.00153 5.42627C9.4416 5.42627 10.6095 6.59336 10.6095 8.03426C10.6095 9.4744 9.44167 10.6423 8.00153 10.6423C6.56141 10.6423 5.39355 9.4744 5.39355 8.03426Z" fill="#041E42"/>
<path fill-rule="evenodd" clip-rule="evenodd" d="M3.31669 4.39868C4.51296 3.38729 6.16683 2.6665 8.00098 2.6665C9.83478 2.6665 11.4886 3.38672 12.685 4.39787C13.8684 5.398 14.669 6.74249 14.669 8.03449C14.669 9.32649 13.8684 10.671 12.685 11.6712C11.4886 12.6823 9.83478 13.4025 8.00098 13.4025C6.16683 13.4025 4.51296 12.6817 3.31669 11.6703C2.13351 10.67 1.33301 9.32549 1.33301 8.03449C1.33301 6.74349 2.13351 5.39901 3.31669 4.39868ZM3.96233 5.16232C2.91318 6.04933 2.33301 7.13883 2.33301 8.03449C2.33301 8.93016 2.91318 10.0197 3.96233 10.9067C4.99839 11.7826 6.42852 12.4025 8.00098 12.4025C9.57325 12.4025 11.0034 11.783 12.0395 10.9074C13.0886 10.0207 13.669 8.93116 13.669 8.03449C13.669 7.13783 13.0886 6.04833 12.0395 5.16163C11.0034 4.28594 9.57325 3.6665 8.00098 3.6665C6.42852 3.6665 4.99839 4.28638 3.96233 5.16232Z" fill="#041E42"/>
</svg>
