<svg width="38" height="25" viewBox="0 0 38 25" fill="none" xmlns="http://www.w3.org/2000/svg">
<g clip-path="url(#clip0_1_591)">
<path d="M34.3874 0.100098H3.61312C3.48493 0.100098 3.35651 0.100098 3.22854 0.100777C3.1205 0.101683 3.01269 0.102816 2.90466 0.10576C2.66934 0.112102 2.43197 0.126144 2.1996 0.167818C1.96655 0.207746 1.74075 0.282172 1.52964 0.388646C1.10523 0.604508 0.76027 0.949472 0.544407 1.37388C0.437744 1.58507 0.363309 1.81105 0.32358 2.04429C0.281453 2.27689 0.267637 2.51403 0.261295 2.74912C0.258535 2.85706 0.256874 2.96503 0.256312 3.073C0.255859 3.20074 0.255859 3.32894 0.255859 3.45736V20.7426C0.255859 20.871 0.255859 20.999 0.256312 21.1274C0.256992 21.2352 0.258351 21.3433 0.261295 21.4513C0.267637 21.6859 0.281679 21.9233 0.32358 22.1557C0.363227 22.3889 0.437586 22.6149 0.544181 22.8261C0.651352 23.037 0.791243 23.2297 0.958658 23.3968C1.12579 23.5643 1.31843 23.7042 1.52941 23.8113C1.7439 23.9207 1.96359 23.9902 2.19982 24.0326C2.43197 24.074 2.66934 24.0881 2.90466 24.0944C3.01269 24.0969 3.1205 24.0983 3.22854 24.099C3.35651 24.0999 3.48493 24.0999 3.61312 24.0999H34.3874C34.5154 24.0999 34.6438 24.0999 34.7718 24.099C34.8796 24.0985 34.9874 24.0969 35.0959 24.0944C35.3308 24.0881 35.5681 24.074 35.801 24.0326C36.0341 23.9926 36.2599 23.9181 36.4709 23.8113C36.8951 23.5952 37.24 23.2503 37.4561 22.8261C37.5655 22.6116 37.6348 22.3919 37.6767 22.1557C37.7189 21.9233 37.7325 21.6859 37.7388 21.4513C37.7417 21.3433 37.7433 21.2352 37.7438 21.1274C37.7447 20.999 37.7447 20.871 37.7447 20.7426V3.45758C37.7447 3.32916 37.7447 3.20097 37.7438 3.07278C37.7433 2.96488 37.7417 2.85699 37.7388 2.74912C37.7325 2.51403 37.7189 2.27689 37.6767 2.04429C37.6373 1.81101 37.5629 1.585 37.4561 1.37388C37.2402 0.949546 36.8952 0.604611 36.4709 0.388646C36.2598 0.282282 36.034 0.207934 35.801 0.168045C35.5681 0.126144 35.3308 0.112328 35.0959 0.105986C34.9879 0.103243 34.8798 0.101582 34.7718 0.101004C34.6438 0.100098 34.5154 0.100098 34.3874 0.100098Z" fill="#F3F5F6"/>
<path d="M34.3873 0.900085L34.766 0.900765C34.8683 0.901444 34.9709 0.902577 35.074 0.905295C35.2536 0.910277 35.4633 0.920017 35.659 0.955122C35.8289 0.985699 35.9716 1.03213 36.1084 1.10189C36.3821 1.24108 36.6045 1.46373 36.7434 1.73765C36.8128 1.87354 36.859 2.01532 36.8895 2.18677C36.9244 2.3802 36.9342 2.59061 36.9389 2.77112C36.9419 2.87304 36.9432 2.97496 36.9434 3.07914C36.9446 3.2053 36.9446 3.33123 36.9446 3.45761V20.7429C36.9446 20.8692 36.9446 20.9952 36.9437 21.1238C36.9432 21.2257 36.9418 21.3277 36.9391 21.4296C36.9341 21.6099 36.9244 21.8203 36.8891 22.016C36.8634 22.1716 36.8141 22.3225 36.743 22.4633C36.6038 22.7373 36.3811 22.9599 36.107 23.099C35.9711 23.1683 35.8289 23.2148 35.6606 23.2451C35.4611 23.2807 35.2423 23.2904 35.0776 23.295C34.9741 23.2972 34.8711 23.2988 34.7653 23.2993C34.6396 23.3002 34.5132 23.3002 34.3873 23.3002H3.60798C3.48341 23.3002 3.35884 23.3002 3.232 23.2993C3.13007 23.2988 3.02815 23.2975 2.92624 23.2952C2.75774 23.2907 2.53895 23.2807 2.34099 23.2454C2.18448 23.2193 2.03283 23.1696 1.89119 23.0981C1.75532 23.0291 1.63131 22.9389 1.52382 22.8309C1.41599 22.7232 1.32593 22.5992 1.25701 22.4633C1.18584 22.3217 1.13651 22.1701 1.1107 22.0137C1.07537 21.8182 1.0654 21.6087 1.06087 21.4298C1.05831 21.3275 1.0568 21.2252 1.05634 21.1229L1.05566 20.8224V3.37834L1.05612 3.07824C1.05658 2.97578 1.05809 2.87332 1.06065 2.77089C1.06563 2.59151 1.07537 2.38201 1.11093 2.18496C1.13679 2.02888 1.18612 1.87761 1.25724 1.73629C1.32609 1.60085 1.41578 1.47718 1.5245 1.36869C1.63225 1.26077 1.75639 1.17057 1.89232 1.10143C2.03362 1.03045 2.18479 0.981125 2.34077 0.955122C2.53668 0.920017 2.74664 0.910277 2.92647 0.905295C3.02884 0.902577 3.13144 0.901444 3.23314 0.900765L3.61296 0.900085H34.3873Z" fill="white"/>
<path d="M10.1097 8.20163C10.4277 7.80414 10.6433 7.2703 10.5864 6.72491C10.1212 6.74802 9.55363 7.03181 9.22477 7.42975C8.92965 7.77039 8.66851 8.32642 8.73646 8.84894C9.25874 8.89423 9.78058 8.58802 10.1097 8.20163Z" fill="black"/>
<path d="M10.5804 8.9511C9.82162 8.9058 9.17703 9.38143 8.81487 9.38143C8.45249 9.38143 7.89782 8.97375 7.29784 8.98485C6.51713 8.99617 5.79282 9.43783 5.39646 10.1399C4.58155 11.5442 5.1813 13.6279 5.97401 14.7717C6.35882 15.3379 6.82267 15.9607 7.43374 15.9383C8.01129 15.9157 8.23755 15.5646 8.93922 15.5646C9.64066 15.5646 9.8445 15.9383 10.4558 15.927C11.0895 15.9157 11.4859 15.3608 11.8707 14.7945C12.3123 14.149 12.4928 13.5262 12.5042 13.4922C12.4928 13.4809 11.282 13.0164 11.2707 11.6235C11.2594 10.457 12.2215 9.90213 12.2668 9.86793C11.7235 9.06435 10.8746 8.97375 10.5801 8.9511" fill="black"/>
<path d="M18.1419 7.37268C19.7903 7.37268 20.9384 8.50898 20.9384 10.1633C20.9384 11.8234 19.7668 12.9656 18.1007 12.9656H16.2757V15.8683H14.957V7.37268H18.1419ZM16.2757 11.8588H17.7886C18.9369 11.8588 19.5901 11.2407 19.5901 10.1692C19.5901 9.09785 18.9367 8.48543 17.7945 8.48543H16.2757V11.8588Z" fill="black"/>
<path d="M21.2656 14.1078C21.2656 13.0186 22.0957 12.3947 23.6263 12.3004L25.2688 12.2003V11.7292C25.2688 11.0407 24.8156 10.6638 24.0091 10.6638C23.3437 10.6638 22.8608 11.0051 22.7611 11.529H21.5716C21.6072 10.4283 22.6431 9.62762 24.0444 9.62762C25.5515 9.62762 26.5347 10.4165 26.5347 11.6411V15.8681H25.3162V14.8496H25.2867C24.9393 15.5148 24.1738 15.9326 23.3437 15.9326C22.1193 15.9326 21.2656 15.2029 21.2656 14.1078ZM25.2688 13.5604V13.0834L23.803 13.1776C22.9786 13.2306 22.5491 13.5366 22.5491 14.0723C22.5491 14.5905 22.9965 14.9261 23.697 14.9261C24.5916 14.9261 25.2688 14.3549 25.2688 13.5604Z" fill="black"/>
<path d="M27.6554 18.1405V17.1222C27.7378 17.1337 27.9378 17.1455 28.0438 17.1455C28.6266 17.1455 28.9564 16.8986 29.1566 16.2624L29.2743 15.8858L27.043 9.70416H28.4205L29.9749 14.72H30.0043L31.5585 9.70416H32.9009L30.5871 16.1976C30.0571 17.6873 29.4508 18.176 28.1675 18.176C28.0674 18.176 27.7435 18.1642 27.6554 18.1405Z" fill="black"/>
</g>
<defs>
<clipPath id="clip0_1_591">
<rect width="38" height="24" fill="white" transform="translate(0 0.100098)"/>
</clipPath>
</defs>
</svg>
