<svg width="30" height="24" viewBox="0 0 30 24" fill="none" xmlns="http://www.w3.org/2000/svg">
<path d="M30 4.47142V3.99803C30 2.21566 28.5499 0.765625 26.7676 0.765625H3.23241C1.45003 0.765625 0 2.21566 0 3.99803V4.47142V4.47487V20.002C0 21.7843 1.45003 23.2343 3.23241 23.2343H26.7678C28.55 23.2343 30 21.7843 30 20.002V4.47487C30 4.47376 30 4.47259 30 4.47142ZM3.23241 2.52345H26.7676C27.5806 2.52345 28.2422 3.18492 28.2422 3.99803V3.99844L16.4708 11.846C15.6873 12.3683 14.3128 12.3683 13.5294 11.846L1.75783 3.99839V3.99797C1.75783 3.18492 2.4193 2.52345 3.23241 2.52345ZM26.7678 21.4765H3.23241C2.4193 21.4765 1.75783 20.815 1.75783 20.002V6.111L12.5543 13.3086C13.2401 13.7658 14.1199 13.9943 15.0001 13.9943C15.88 13.9943 16.7602 13.7657 17.4459 13.3086L28.2422 6.111V20.002C28.2422 20.815 27.5807 21.4765 26.7678 21.4765Z" fill="#041E42"/>
</svg>
