<svg width="38" height="25" viewBox="0 0 38 25" fill="none" xmlns="http://www.w3.org/2000/svg">
<g clip-path="url(#clip0_1_602)">
<path d="M35 0.100098H3C1.3 0.100098 0 1.4001 0 3.1001V21.1001C0 22.8001 1.4 24.1001 3 24.1001H35C36.7 24.1001 38 22.8001 38 21.1001V3.1001C38 1.4001 36.6 0.100098 35 0.100098Z" fill="#F3F5F6"/>
<path d="M35 1.1001C36.1 1.1001 37 2.0001 37 3.1001V21.1001C37 22.2001 36.1 23.1001 35 23.1001H3C1.9 23.1001 1 22.2001 1 21.1001V3.1001C1 2.0001 1.9 1.1001 3 1.1001H35Z" fill="white"/>
<path d="M3.57 7.26008H2V12.7601H3.57C4.4 12.7601 5 12.5601 5.53 12.1301C6.16 11.6101 6.53 10.8301 6.53 10.0201C6.52 8.39008 5.31 7.26008 3.57 7.26008ZM4.83 11.4001C4.49 11.7001 4.06 11.8401 3.36 11.8401H3.07V8.20008H3.36C4.05 8.20008 4.47 8.32008 4.83 8.64008C5.2 8.97008 5.42 9.48008 5.42 10.0101C5.42 10.5401 5.2 11.0701 4.83 11.4001ZM7.02 7.26008H8.09V12.7601H7.02V7.26008ZM10.71 9.37008C10.07 9.13008 9.88 8.97008 9.88 8.68008C9.88 8.33008 10.22 8.07008 10.68 8.07008C11 8.07008 11.27 8.20008 11.54 8.52008L12.1 7.79008C11.64 7.39008 11.09 7.18008 10.48 7.18008C9.51 7.18008 8.76 7.86008 8.76 8.76008C8.76 9.52008 9.11 9.91008 10.11 10.2701C10.53 10.4201 10.74 10.5201 10.85 10.5801C11.06 10.7201 11.17 10.9201 11.17 11.1501C11.17 11.6001 10.82 11.9301 10.34 11.9301C9.83 11.9301 9.42 11.6701 9.17 11.2001L8.48 11.8701C8.97 12.6001 9.57 12.9201 10.38 12.9201C11.49 12.9201 12.28 12.1801 12.28 11.1101C12.3 10.2201 11.93 9.82008 10.71 9.37008ZM12.63 10.0201C12.63 11.6401 13.9 12.8901 15.53 12.8901C15.99 12.8901 16.39 12.8001 16.87 12.5701V11.3101C16.44 11.7401 16.06 11.9101 15.58 11.9101C14.5 11.9101 13.73 11.1301 13.73 10.0101C13.73 8.95008 14.52 8.12008 15.53 8.12008C16.04 8.12008 16.43 8.30008 16.87 8.74008V7.48008C16.4 7.24008 16.01 7.14008 15.55 7.14008C13.94 7.14008 12.63 8.42008 12.63 10.0201ZM25.39 10.9601L23.92 7.26008H22.75L25.08 12.9001H25.66L28.03 7.26008H26.87L25.39 10.9601ZM28.52 12.7601H31.56V11.8301H29.59V10.3501H31.49V9.42008H29.59V8.20008H31.56V7.26008H28.52V12.7601ZM35.81 8.89008C35.81 7.86008 35.1 7.27008 33.86 7.27008H32.27V12.7701H33.34V10.5601H33.48L34.96 12.7701H36.28L34.55 10.4501C35.36 10.2801 35.81 9.73008 35.81 8.89008ZM33.65 9.80008H33.34V8.13008H33.67C34.34 8.13008 34.7 8.41008 34.7 8.95008C34.7 9.50008 34.34 9.80008 33.65 9.80008Z" fill="#231F20"/>
<path d="M20.1595 12.9601C20.9369 12.9601 21.6824 12.6513 22.232 12.1016C22.7817 11.5519 23.0905 10.8064 23.0905 10.0291C23.0905 9.25173 22.7817 8.50622 22.232 7.95655C21.6824 7.40688 20.9369 7.09808 20.1595 7.09808C19.3822 7.09808 18.6367 7.40688 18.087 7.95655C17.5373 8.50622 17.2285 9.25173 17.2285 10.0291C17.2285 10.8064 17.5373 11.5519 18.087 12.1016C18.6367 12.6513 19.3822 12.9601 20.1595 12.9601Z" fill="url(#paint0_linear_1_602)"/>
<path opacity="0.65" d="M20.1595 12.9601C20.9369 12.9601 21.6824 12.6513 22.232 12.1016C22.7817 11.5519 23.0905 10.8064 23.0905 10.0291C23.0905 9.25173 22.7817 8.50622 22.232 7.95655C21.6824 7.40688 20.9369 7.09808 20.1595 7.09808C19.3822 7.09808 18.6367 7.40688 18.087 7.95655C17.5373 8.50622 17.2285 9.25173 17.2285 10.0291C17.2285 10.8064 17.5373 11.5519 18.087 12.1016C18.6367 12.6513 19.3822 12.9601 20.1595 12.9601Z" fill="url(#paint1_linear_1_602)"/>
<path d="M36.5705 7.60612C36.5705 7.50612 36.5005 7.45612 36.3905 7.45612H36.2305V7.93612H36.3505V7.74612L36.4905 7.93612H36.6305L36.4705 7.73612C36.5305 7.72612 36.5705 7.67612 36.5705 7.60612ZM36.3705 7.67612H36.3505V7.54612H36.3705C36.4305 7.54612 36.4605 7.56612 36.4605 7.60612C36.4605 7.65612 36.4305 7.67612 36.3705 7.67612Z" fill="#231F20"/>
<path d="M36.4102 7.27612C36.1802 7.27612 35.9902 7.46612 35.9902 7.69612C35.9902 7.92612 36.1802 8.11612 36.4102 8.11612C36.6402 8.11612 36.8302 7.92612 36.8302 7.69612C36.8302 7.46612 36.6402 7.27612 36.4102 7.27612ZM36.4102 8.04612C36.2302 8.04612 36.0702 7.89612 36.0702 7.69612C36.0702 7.50612 36.2202 7.34612 36.4102 7.34612C36.5902 7.34612 36.7402 7.50612 36.7402 7.69612C36.7402 7.88612 36.5902 8.04612 36.4102 8.04612Z" fill="#231F20"/>
<path d="M36.9996 13.0841C36.9996 13.0841 27.0896 19.9731 8.97559 23.1001H34.9986C35.5263 23.1001 36.0326 22.8916 36.4072 22.52C36.7818 22.1484 36.9944 21.6438 36.9986 21.1161L37.0226 18.0961L36.9996 13.0851V13.0841Z" fill="#F48120"/>
</g>
<defs>
<linearGradient id="paint0_linear_1_602" x1="21.6565" y1="12.3751" x2="19.6315" y2="9.20408" gradientUnits="userSpaceOnUse">
<stop stop-color="#F89F20"/>
<stop offset="0.25" stop-color="#F79A20"/>
<stop offset="0.533" stop-color="#F68D20"/>
<stop offset="0.62" stop-color="#F58720"/>
<stop offset="0.723" stop-color="#F48120"/>
<stop offset="1" stop-color="#F37521"/>
</linearGradient>
<linearGradient id="paint1_linear_1_602" x1="21.3375" y1="12.3321" x2="18.3775" y2="6.54608" gradientUnits="userSpaceOnUse">
<stop stop-color="#F58720"/>
<stop offset="0.359" stop-color="#E16F27"/>
<stop offset="0.703" stop-color="#D4602C"/>
<stop offset="0.982" stop-color="#D05B2E"/>
</linearGradient>
<clipPath id="clip0_1_602">
<rect width="38" height="24" fill="white" transform="translate(0 0.100098)"/>
</clipPath>
</defs>
</svg>
