<svg width="27" height="9" viewBox="0 0 27 9" fill="none" xmlns="http://www.w3.org/2000/svg">
<path d="M23.3 2.2001H23C22.6 3.2001 22.3 3.7001 22 5.2001H23.9C23.6 3.7001 23.6 3.0001 23.3 2.2001ZM26.2 8.1001H24.5C24.4 8.1001 24.4 8.1001 24.3 8.0001L24.1 7.1001L24 6.9001H21.6C21.5 6.9001 21.4 6.9001 21.4 7.1001L21.1 8.0001C21.1 8.1001 21 8.1001 21 8.1001H18.9L19.1 7.6001L22 0.800097C22 0.300097 22.3 0.100098 22.8 0.100098H24.3C24.4 0.100098 24.5 0.100097 24.5 0.300097L25.9 6.8001C26 7.2001 26.1 7.5001 26.1 7.9001C26.2 8.0001 26.2 8.0001 26.2 8.1001ZM12.8 7.8001L13.2 6.0001C13.3 6.0001 13.4 6.1001 13.4 6.1001C14.1 6.4001 14.8 6.6001 15.5 6.5001C15.7 6.5001 16 6.4001 16.2 6.3001C16.7 6.1001 16.7 5.6001 16.3 5.2001C16.1 5.0001 15.8 4.9001 15.5 4.7001C15.1 4.5001 14.7 4.3001 14.4 4.0001C13.2 3.0001 13.6 1.6001 14.3 0.900098C14.9 0.500098 15.2 0.100098 16 0.100098C17.2 0.100098 18.5 0.100097 19.1 0.300097H19.2C19.1 0.900097 19 1.4001 18.8 2.0001C18.3 1.8001 17.8 1.6001 17.3 1.6001C17 1.6001 16.7 1.6001 16.4 1.7001C16.2 1.7001 16.1 1.8001 16 1.9001C15.8 2.1001 15.8 2.4001 16 2.6001L16.5 3.0001C16.9 3.2001 17.3 3.4001 17.6 3.6001C18.1 3.9001 18.6 4.4001 18.7 5.0001C18.9 5.9001 18.6 6.7001 17.8 7.3001C17.3 7.7001 17.1 7.9001 16.4 7.9001C15 7.9001 13.9 8.0001 13 7.7001C12.9 7.9001 12.9 7.9001 12.8 7.8001ZM9.3 8.1001C9.4 7.4001 9.4 7.4001 9.5 7.1001C10 4.9001 10.5 2.6001 10.9 0.400098C11 0.200098 11 0.100098 11.2 0.100098H13C12.8 1.3001 12.6 2.2001 12.3 3.3001C12 4.8001 11.7 6.3001 11.3 7.8001C11.3 8.0001 11.2 8.0001 11 8.0001L9.3 8.1001ZM0 0.300097C0 0.200097 0.2 0.100098 0.3 0.100098H3.7C4.2 0.100098 4.6 0.400098 4.7 0.900098L5.6 5.3001C5.6 5.4001 5.6 5.4001 5.7 5.5001C5.7 5.4001 5.8 5.4001 5.8 5.4001L7.9 0.300097C7.8 0.200097 7.9 0.100098 8 0.100098H10.1C10.1 0.200098 10.1 0.200097 10 0.300097L6.9 7.6001C6.8 7.8001 6.8 7.9001 6.7 8.0001C6.6 8.1001 6.4 8.0001 6.2 8.0001H4.7C4.6 8.0001 4.5 8.0001 4.5 7.8001L2.9 1.6001C2.7 1.4001 2.4 1.1001 2 1.0001C1.4 0.700097 0.3 0.500097 0.0999999 0.500097L0 0.300097Z" fill="#142688"/>
</svg>
