<svg width="38" height="25" viewBox="0 0 38 25" fill="none" xmlns="http://www.w3.org/2000/svg">
<g clip-path="url(#clip0_1_611)">
<path d="M35 0.100098H3C1.3 0.100098 0 1.4001 0 3.1001V21.1001C0 22.8001 1.4 24.1001 3 24.1001H35C36.7 24.1001 38 22.8001 38 21.1001V3.1001C38 1.4001 36.6 0.100098 35 0.100098Z" fill="#F3F5F6"/>
<path d="M35 1.1001C36.1 1.1001 37 2.0001 37 3.1001V21.1001C37 22.2001 36.1 23.1001 35 23.1001H3C1.9 23.1001 1 22.2001 1 21.1001V3.1001C1 2.0001 1.9 1.1001 3 1.1001H35Z" fill="white"/>
<path d="M23.9 8.4001C24.1 7.4001 23.9 6.7001 23.3 6.1001C22.7 5.4001 21.6 5.1001 20.2 5.1001H16.1C15.8 5.1001 15.6 5.3001 15.5 5.6001L14 15.7001C14 15.9001 14.1 16.1001 14.3 16.1001H17L17.4 12.7001L19.2 10.5001L23.9 8.4001Z" fill="#003087"/>
<path d="M23.8996 8.40009L23.6996 8.60009C23.1996 11.4001 21.4996 12.4001 19.0996 12.4001H17.9996C17.6996 12.4001 17.4996 12.6001 17.3996 12.9001L16.7996 16.8001L16.5996 17.8001C16.5996 18.0001 16.6996 18.2001 16.8996 18.2001H18.9996C19.2996 18.2001 19.4996 18.0001 19.4996 17.8001V17.7001L19.8996 15.3001V15.2001C19.8996 15.0001 20.1996 14.8001 20.3996 14.8001H20.6996C22.7996 14.8001 24.3996 14.0001 24.7996 11.6001C24.9996 10.6001 24.8996 9.80009 24.3996 9.20009C24.2996 8.70009 24.0996 8.50009 23.8996 8.40009Z" fill="#3086C8"/>
<path d="M23.3004 8.20009C23.2004 8.10009 23.1004 8.10009 23.0004 8.10009C22.9004 8.10009 22.8004 8.10009 22.7004 8.00009C22.4004 7.90009 22.0004 7.90009 21.6004 7.90009H18.6004C18.5004 7.90009 18.4004 7.90009 18.4004 8.00009C18.2004 8.10009 18.1004 8.20009 18.1004 8.40009L17.4004 12.8001V12.9001C17.4004 12.6001 17.7004 12.4001 18.0004 12.4001H19.3004C21.8004 12.4001 23.4004 11.4001 23.9004 8.60009V8.40009C23.8004 8.30009 23.6004 8.20009 23.4004 8.20009H23.3004Z" fill="#012169"/>
</g>
<defs>
<clipPath id="clip0_1_611">
<rect width="38" height="24" fill="white" transform="translate(0 0.100098)"/>
</clipPath>
</defs>
</svg>
