<svg width="18" height="17" viewBox="0 0 18 17" fill="none" xmlns="http://www.w3.org/2000/svg">
<path d="M12.6234 0.554199C15.2175 0.554199 17.3198 2.6889 17.3198 5.6775C17.3198 11.6547 10.9157 15.0703 8.78105 16.3511C6.6463 15.0703 0.242188 11.6547 0.242188 5.6775C0.242188 2.6889 2.3769 0.554199 4.93853 0.554199C6.52675 0.554199 7.92712 1.40808 8.78105 2.26196C9.63485 1.40808 11.0352 0.554199 12.6234 0.554199ZM9.57855 13.8782C10.3307 13.4035 11.0096 12.9313 11.6449 12.4258C14.1903 10.4021 15.612 8.19045 15.612 5.6775C15.612 3.66233 14.2996 2.26196 12.6234 2.26196C11.7046 2.26196 10.7107 2.74867 9.98835 3.46935L8.78105 4.67674L7.57361 3.46935C6.85123 2.74867 5.85731 2.26196 4.93853 2.26196C3.282 2.26196 1.94996 3.67599 1.94996 5.6775C1.94996 8.19135 3.37251 10.4021 5.91623 12.4258C6.55237 12.9313 7.23121 13.4035 7.98348 13.8774C8.23875 14.0388 8.49155 14.1933 8.78105 14.3658C9.07045 14.1933 9.32325 14.0388 9.57855 13.8782Z" fill="#041E42"/>
</svg>
