<svg width="10" height="10" viewBox="0 0 10 10" fill="none" xmlns="http://www.w3.org/2000/svg">
<path d="M4.88574 2.69434C6.11621 2.69434 7.13184 3.70996 7.13184 4.94043C7.13184 6.19043 6.11621 7.18652 4.88574 7.18652C3.63574 7.18652 2.63965 6.19043 2.63965 4.94043C2.63965 3.70996 3.63574 2.69434 4.88574 2.69434ZM4.88574 6.40527C5.68652 6.40527 6.33105 5.76074 6.33105 4.94043C6.33105 4.13965 5.68652 3.49512 4.88574 3.49512C4.06543 3.49512 3.4209 4.13965 3.4209 4.94043C3.4209 5.76074 4.08496 6.40527 4.88574 6.40527ZM7.7373 2.61621C7.7373 2.90918 7.50293 3.14355 7.20996 3.14355C6.91699 3.14355 6.68262 2.90918 6.68262 2.61621C6.68262 2.32324 6.91699 2.08887 7.20996 2.08887C7.50293 2.08887 7.7373 2.32324 7.7373 2.61621ZM9.22168 3.14355C9.26074 3.86621 9.26074 6.03418 9.22168 6.75684C9.18262 7.45996 9.02637 8.06543 8.51855 8.59277C8.01074 9.10059 7.38574 9.25684 6.68262 9.2959C5.95996 9.33496 3.79199 9.33496 3.06934 9.2959C2.36621 9.25684 1.76074 9.10059 1.2334 8.59277C0.725586 8.06543 0.569336 7.45996 0.530273 6.75684C0.491211 6.03418 0.491211 3.86621 0.530273 3.14355C0.569336 2.44043 0.725586 1.81543 1.2334 1.30762C1.76074 0.799805 2.36621 0.643555 3.06934 0.604492C3.79199 0.56543 5.95996 0.56543 6.68262 0.604492C7.38574 0.643555 8.01074 0.799805 8.51855 1.30762C9.02637 1.81543 9.18262 2.44043 9.22168 3.14355ZM8.28418 7.51855C8.51855 6.95215 8.45996 5.58496 8.45996 4.94043C8.45996 4.31543 8.51855 2.94824 8.28418 2.3623C8.12793 1.99121 7.83496 1.67871 7.46387 1.54199C6.87793 1.30762 5.51074 1.36621 4.88574 1.36621C4.24121 1.36621 2.87402 1.30762 2.30762 1.54199C1.91699 1.69824 1.62402 1.99121 1.46777 2.3623C1.2334 2.94824 1.29199 4.31543 1.29199 4.94043C1.29199 5.58496 1.2334 6.95215 1.46777 7.51855C1.62402 7.90918 1.91699 8.20215 2.30762 8.3584C2.87402 8.59277 4.24121 8.53418 4.88574 8.53418C5.51074 8.53418 6.87793 8.59277 7.46387 8.3584C7.83496 8.20215 8.14746 7.90918 8.28418 7.51855Z" fill="#041E42"/>
</svg>
