<svg width="16" height="16" viewBox="0 0 16 16" fill="none" xmlns="http://www.w3.org/2000/svg">
<g clip-path="url(#clip0_1_626)">
<path d="M10.9996 0C10.1466 0.0589997 9.14966 0.604996 8.56866 1.31599C8.03867 1.96099 7.60268 2.91898 7.77267 3.84998C8.70466 3.87898 9.66765 3.31998 10.2256 2.59698C10.7476 1.92399 11.1426 0.971994 10.9996 0Z" fill="black"/>
<path d="M14.3705 5.36799C13.5515 4.34099 12.4006 3.745 11.3136 3.745C9.87857 3.745 9.27157 4.43199 8.27458 4.43199C7.24658 4.43199 6.46559 3.747 5.22459 3.747C4.0056 3.747 2.70761 4.49199 1.88461 5.76599C0.72762 7.55999 0.925619 10.933 2.80061 13.806C3.4716 14.834 4.3676 15.99 5.53959 16C6.58259 16.01 6.87658 15.331 8.28958 15.324C9.70257 15.316 9.97057 16.009 11.0116 15.998C12.1846 15.989 13.1295 14.708 13.8005 13.68C14.2815 12.943 14.4605 12.572 14.8335 11.74C12.1206 10.707 11.6856 6.84899 14.3705 5.36799Z" fill="black"/>
</g>
<defs>
<clipPath id="clip0_1_626">
<rect width="16" height="16" fill="white"/>
</clipPath>
</defs>
</svg>
