<svg width="10" height="10" viewBox="0 0 10 10" fill="none" xmlns="http://www.w3.org/2000/svg">
<path d="M2.46387 9.69043H0.647461V3.85059H2.46387V9.69043ZM1.5459 3.06934C0.979492 3.06934 0.510742 2.58105 0.510742 1.99512C0.510742 1.42871 0.979492 0.959961 1.5459 0.959961C2.13184 0.959961 2.60059 1.42871 2.60059 1.99512C2.60059 2.58105 2.13184 3.06934 1.5459 3.06934ZM9.24121 9.69043H7.44434V6.8584C7.44434 6.1748 7.4248 5.31543 6.4873 5.31543C5.5498 5.31543 5.41309 6.03809 5.41309 6.7998V9.69043H3.59668V3.85059H5.33496V4.65137H5.35449C5.6084 4.20215 6.19434 3.71387 7.07324 3.71387C8.90918 3.71387 9.26074 4.9248 9.26074 6.4873V9.69043H9.24121Z" fill="#041E42"/>
</svg>
