<svg width="16" height="20" viewBox="0 0 16 20" fill="none" xmlns="http://www.w3.org/2000/svg">
<path d="M8 9.16683C8.82408 9.16683 9.62966 8.92249 10.3149 8.46458C11.0001 8.00678 11.5342 7.35603 11.8495 6.59468C12.1648 5.83332 12.2474 4.99554 12.0866 4.18729C11.9258 3.37904 11.529 2.6366 10.9462 2.05389C10.3636 1.47117 9.62116 1.07433 8.81291 0.913561C8.00458 0.752786 7.16683 0.835303 6.4055 1.15066C5.64412 1.46603 4.99338 2.00009 4.53554 2.68529C4.0777 3.37049 3.83333 4.17608 3.83333 5.00016C3.83466 6.10483 4.27406 7.16386 5.05518 7.94498C5.8363 8.72608 6.89533 9.16549 8 9.16683ZM8 2.50016C8.49441 2.50016 8.97783 2.64679 9.38891 2.92149C9.80008 3.19619 10.1205 3.58664 10.3097 4.04345C10.4989 4.50027 10.5484 5.00293 10.452 5.48788C10.3555 5.97284 10.1174 6.4183 9.76775 6.76793C9.41816 7.11756 8.97266 7.35566 8.48775 7.45213C8.00275 7.54858 7.50008 7.49908 7.04325 7.30986C6.5865 7.12064 6.19603 6.80021 5.92132 6.38908C5.64662 5.97797 5.5 5.49462 5.5 5.00016C5.5 4.33712 5.76339 3.70124 6.23223 3.23239C6.70108 2.76355 7.337 2.50016 8 2.50016ZM0.5 18.3335V15.0002C0.501325 13.8955 0.940733 12.8365 1.72185 12.0553C2.50297 11.2742 3.56201 10.8348 4.66666 10.8335H11.3333C12.438 10.8348 13.497 11.2742 14.2782 12.0553C15.0592 12.8365 15.4987 13.8955 15.5 15.0002V18.3335C15.5 18.5545 15.4122 18.7665 15.2559 18.9227C15.0997 19.079 14.8877 19.1668 14.6667 19.1668C14.4457 19.1668 14.2337 19.079 14.0774 18.9227C13.9212 18.7665 13.8333 18.5545 13.8333 18.3335V15.0002C13.8333 14.3372 13.5699 13.7012 13.1011 13.2324C12.6322 12.7636 11.9963 12.5002 11.3333 12.5002H4.66666C4.00362 12.5002 3.36774 12.7636 2.8989 13.2324C2.43006 13.7012 2.16667 14.3372 2.16667 15.0002V18.3335C2.16667 18.5545 2.07887 18.7665 1.92259 18.9227C1.76631 19.079 1.55435 19.1668 1.33333 19.1668C1.11232 19.1668 0.900358 19.079 0.744075 18.9227C0.5878 18.7665 0.5 18.5545 0.5 18.3335Z" fill="#041E42"/>
</svg>
