<svg width="30" height="30" viewBox="0 0 30 30" fill="none" xmlns="http://www.w3.org/2000/svg">
<g clip-path="url(#clip0_1_666)">
<path d="M25.8378 22.7609L21.2943 19.7752C20.2128 19.0645 18.8089 19.1263 17.8004 19.9285C16.9174 20.6314 15.6496 20.5595 14.8517 19.7614L10.2384 15.1483C9.4405 14.3502 9.36863 13.0824 10.0713 12.1994C10.8738 11.1909 10.9353 9.78698 10.2246 8.70552L7.23888 4.16199C6.7168 3.36754 5.90702 2.89215 4.95853 2.82326C4.01005 2.75505 3.14053 3.10821 2.50927 3.81912C-0.988045 7.75726 -0.808831 13.7606 2.91714 17.4863L12.5135 27.0829C14.4521 29.0215 17.0071 29.9998 19.5674 29.9998C21.9274 29.9998 24.292 29.1682 26.1809 27.4908C26.8918 26.8593 27.2454 25.9895 27.1766 25.0413C27.1079 24.093 26.6325 23.2832 25.8378 22.7609ZM25.0138 26.1765C21.7704 29.057 16.8254 28.9091 13.7563 25.8401L4.15974 16.2437C1.09089 13.1747 0.943031 8.22967 3.82328 4.98596C4.06727 4.7113 4.37122 4.57237 4.72782 4.57237C4.76192 4.57237 4.79649 4.57374 4.8315 4.57626C5.23319 4.60533 5.54882 4.79072 5.77015 5.12718L8.75591 9.67071C9.053 10.123 9.02965 10.686 8.69594 11.1051C7.43641 12.6881 7.56527 14.9606 8.99555 16.3911L13.6089 21.0043C15.0392 22.4348 17.3117 22.5636 18.8947 21.3039C19.3138 20.9704 19.8768 20.9468 20.3291 21.2441L24.8726 24.2297H24.8724C25.2091 24.451 25.3945 24.7666 25.4235 25.1683C25.4526 25.57 25.3148 25.9092 25.0138 26.1765Z" fill="#041E42"/>
<path d="M29.7427 0.257492C29.5779 0.0926971 29.3545 0 29.1215 0H23.8194C23.334 0 22.9405 0.393448 22.9405 0.878906C22.9405 1.36414 23.334 1.75758 23.8194 1.75758H27.0036L17.1922 11.5945C16.8493 11.938 16.8502 12.4944 17.1938 12.8373C17.3652 13.0083 17.5897 13.0939 17.8143 13.0939C18.0395 13.0939 18.2649 13.0078 18.4366 12.8357L28.2426 3.0043L28.2424 6.1805C28.2424 6.66595 28.6358 7.0594 29.121 7.0594H29.1213C29.6065 7.0594 29.9999 6.66595 29.9999 6.1805L30.0002 0.878677C30.0002 0.645905 29.9077 0.422287 29.7427 0.257492Z" fill="#041E42"/>
</g>
<defs>
<clipPath id="clip0_1_666">
<rect width="30" height="30" fill="white"/>
</clipPath>
</defs>
</svg>
