<svg width="24" height="24" viewBox="0 0 24 24" fill="none" xmlns="http://www.w3.org/2000/svg">
<path d="M2.87646 14.0605H3.25118C3.51007 14.0605 3.71993 13.8506 3.71993 13.5918C3.71993 13.333 3.51007 13.123 3.25118 13.123H2.87646C2.61757 13.123 2.40771 13.333 2.40771 13.5918C2.40771 13.8506 2.61757 14.0605 2.87646 14.0605Z" fill="#041E42"/>
<path d="M7.97088 14.0605C8.22977 14.0605 8.43963 13.8506 8.43963 13.5918C8.43963 13.333 8.22977 13.123 7.97088 13.123H5.12744C4.86855 13.123 4.65869 13.333 4.65869 13.5918C4.65869 13.8506 4.86855 14.0605 5.12744 14.0605H7.97088Z" fill="#041E42"/>
<path d="M2.87646 16.2856H7.97075C8.22964 16.2856 8.4395 16.0757 8.4395 15.8169C8.4395 15.5581 8.22964 15.3481 7.97075 15.3481H2.87646C2.61757 15.3481 2.40771 15.5581 2.40771 15.8169C2.40771 16.0757 2.61757 16.2856 2.87646 16.2856Z" fill="#041E42"/>
<path d="M18.4088 9.69131V1.82948C18.4088 0.988687 17.724 0.304688 16.8824 0.304688H1.52508C0.684141 0.304688 0 0.988734 0 1.82948V7.40189C0 7.66073 0.209859 7.87064 0.46875 7.87064C0.727641 7.87064 0.9375 7.66073 0.9375 7.40189V1.82948C0.9375 1.50563 1.20108 1.24219 1.52508 1.24219H5.87292V7.3222C5.87292 7.49208 5.96484 7.64869 6.11316 7.73147C6.26147 7.81425 6.44302 7.81041 6.58762 7.7212L9.20372 6.1088L11.8198 7.7212C12.127 7.91058 12.5345 7.68136 12.5345 7.32216V1.24219H16.8824C17.2071 1.24219 17.4713 1.50563 17.4713 1.82948V9.55434C17.2883 9.54014 17.1034 9.53273 16.9169 9.53273C13.0113 9.53273 9.83381 12.7094 9.83381 16.614C9.83381 17.008 9.86672 17.3945 9.92892 17.7712H1.52508C1.20108 17.7712 0.9375 17.5071 0.9375 17.1825V11.6101C0.9375 11.3513 0.727641 11.1414 0.46875 11.1414C0.209859 11.1414 0 11.3513 0 11.6101V17.1826C0 18.0241 0.684141 18.7087 1.52508 18.7087H10.1502C11.0456 21.5939 13.7404 23.6953 16.9169 23.6953C20.8225 23.6953 24 20.5186 24 16.614C24 13.221 21.6004 10.3781 18.4088 9.69131ZM11.597 6.48267L9.44967 5.15916C9.29887 5.06625 9.10856 5.06625 8.95777 5.15916L6.81042 6.48267V1.24219H11.597V6.48267ZM16.9169 22.7578C13.5282 22.7578 10.7713 20.0017 10.7713 16.614C10.7713 13.2264 13.5282 10.4703 16.9169 10.4703C20.3056 10.4703 23.0625 13.2263 23.0625 16.614C23.0625 20.0018 20.3056 22.7578 16.9169 22.7578Z" fill="#041E42"/>
<path d="M17.7688 13.8989H15.9782L16.8139 13.0641C16.9971 12.8811 16.9972 12.5843 16.8143 12.4011C16.6313 12.218 16.3346 12.2179 16.1513 12.4008L14.5144 14.036C14.3337 14.2151 14.3337 14.5202 14.5144 14.6992L16.1513 16.3345C16.2429 16.4259 16.3627 16.4716 16.4826 16.4716C16.6026 16.4716 16.7227 16.4257 16.8142 16.3341C16.9972 16.151 16.9971 15.8541 16.8139 15.6711L15.9782 14.8363H17.7688C18.9031 14.8363 19.826 15.7588 19.826 16.8928C19.826 18.0274 18.9031 18.9505 17.7688 18.9505H13.5396C13.2807 18.9505 13.0708 19.1604 13.0708 19.4193C13.0708 19.6781 13.2807 19.888 13.5396 19.888H17.7688C19.4201 19.888 20.7635 18.5443 20.7635 16.8928C20.7634 15.242 19.4201 13.8989 17.7688 13.8989Z" fill="#041E42"/>
<path d="M0.46875 9.97592C0.727641 9.97592 0.9375 9.7647 0.9375 9.50586C0.9375 9.24702 0.727641 9.03711 0.46875 9.03711C0.209859 9.03711 0 9.24702 0 9.50586V9.50853C0 9.76738 0.209859 9.97592 0.46875 9.97592Z" fill="#041E42"/>
</svg>
