<svg width="18" height="18" viewBox="0 0 18 18" fill="none" xmlns="http://www.w3.org/2000/svg">
<path d="M8.11654 0.609375C3.98427 0.609375 0.618164 3.97548 0.618164 8.10776C0.618164 12.24 3.98427 15.6127 8.11654 15.6127C9.88156 15.6127 11.5048 14.9941 12.7878 13.9671L15.9111 17.0889C16.0688 17.24 16.2793 17.3233 16.4976 17.3211C16.7159 17.3189 16.9247 17.2312 17.0792 17.0769C17.2337 16.9227 17.3217 16.714 17.3242 16.4957C17.3267 16.2774 17.2437 16.0667 17.0928 15.9089L13.9694 12.7856C14.9973 11.5006 15.6165 9.87481 15.6165 8.10776C15.6165 3.97548 12.2488 0.609375 8.11654 0.609375ZM8.11654 2.27607C11.3481 2.27607 13.9483 4.87623 13.9483 8.10776C13.9483 11.3393 11.3481 13.946 8.11654 13.946C4.88501 13.946 2.28483 11.3393 2.28483 8.10776C2.28483 4.87623 4.88501 2.27607 8.11654 2.27607Z" fill="#041E42"/>
</svg>
