<svg width="16" height="16" viewBox="0 0 16 16" fill="none" xmlns="http://www.w3.org/2000/svg">
<path d="M12.386 9.9624C11.453 9.9624 10.6178 10.388 10.0636 11.0551L6.45867 9.00838C6.57078 8.69291 6.6324 8.35371 6.6324 8.00021C6.6324 7.64679 6.57078 7.30758 6.45867 6.99211L10.0634 4.94486C10.6175 5.61221 11.4528 6.03796 12.3859 6.03796C14.0501 6.03796 15.4041 4.68347 15.4041 3.01852C15.4042 1.35406 14.0503 0 12.386 0C10.7215 0 9.36741 1.35406 9.36741 3.01845C9.36741 3.37195 9.42896 3.71122 9.54113 4.02676L5.93625 6.07408C5.38213 5.40708 4.54698 4.98162 3.61423 4.98162C1.94956 4.98162 0.595215 6.33568 0.595215 8.00014C0.595215 9.66453 1.94956 11.0186 3.61423 11.0186C4.54698 11.0186 5.38206 10.5931 5.93618 9.9262L9.54113 11.973C9.42896 12.2886 9.36734 12.6279 9.36734 12.9815C9.36734 14.6459 10.7215 15.9999 12.3859 15.9999C14.0502 15.9999 15.4042 14.6458 15.4042 12.9815C15.4042 11.3168 14.0503 9.9624 12.386 9.9624ZM12.386 1.05626C13.4678 1.05626 14.348 1.93648 14.348 3.01845C14.348 4.10098 13.4678 4.98162 12.386 4.98162C11.304 4.98162 10.4237 4.10098 10.4237 3.01845C10.4237 1.93648 11.304 1.05626 12.386 1.05626ZM3.6143 9.9624C2.53205 9.9624 1.65155 9.08211 1.65155 8.00021C1.65155 6.91817 2.53205 6.03796 3.6143 6.03796C4.69612 6.03796 5.5762 6.91817 5.5762 8.00021C5.5762 9.08211 4.69605 9.9624 3.6143 9.9624ZM12.386 14.9437C11.304 14.9437 10.4237 14.0634 10.4237 12.9816C10.4237 11.8992 11.304 11.0187 12.386 11.0187C13.4678 11.0187 14.348 11.8992 14.348 12.9816C14.348 14.0634 13.4678 14.9437 12.386 14.9437Z" fill="black"/>
</svg>
