<svg width="24" height="24" viewBox="0 0 24 24" fill="none" xmlns="http://www.w3.org/2000/svg">
<path d="M22.2953 7.23462H22.2951L20.7107 2.97683C20.6032 2.69059 20.4112 2.44383 20.1601 2.26935C19.909 2.09488 19.6107 2.00093 19.3049 2H4.69476C4.38898 2.00093 4.09073 2.09489 3.83963 2.26938C3.58852 2.44388 3.39647 2.69066 3.28898 2.97692L1.7046 7.23472C1.50773 7.76502 1.48898 8.32784 1.65187 8.81956C1.79558 9.25376 2.03688 9.64924 2.35726 9.97564C2.67764 10.302 3.06856 10.5507 3.50001 10.7024V19.4999C3.50084 20.1627 3.76449 20.7981 4.23314 21.2667C4.70179 21.7354 5.33717 21.999 5.99995 21.9999H17.9999C18.6627 21.999 19.2981 21.7354 19.7668 21.2667C20.2354 20.7981 20.4991 20.1627 20.4999 19.4999V10.7023C20.9314 10.5506 21.3223 10.3019 21.6427 9.97555C21.9631 9.64915 22.2044 9.25366 22.3481 8.81947C22.5112 8.32775 22.4924 7.76492 22.2953 7.23462ZM16.4467 6.74197C16.4821 6.94267 16.5 7.14608 16.4999 7.34989V7.87489C16.5012 8.13835 16.4504 8.39946 16.3505 8.64323C16.2506 8.887 16.1034 9.10863 15.9176 9.29537C15.7318 9.48212 15.5108 9.6303 15.2676 9.73142C15.0243 9.83254 14.7634 9.88459 14.5 9.88459C14.2365 9.88459 13.9756 9.83254 13.7323 9.73142C13.4891 9.6303 13.2682 9.48212 13.0823 9.29537C12.8965 9.10863 12.7494 8.887 12.6494 8.64323C12.5495 8.39946 12.4987 8.13835 12.5 7.87489V2.99989H15.7863L16.4467 6.74197ZM7.49995 7.34989C7.49991 7.14601 7.51771 6.94251 7.55315 6.74173L8.21362 2.99989H11.5V7.87489C11.5 8.13754 11.4482 8.39761 11.3477 8.64026C11.2472 8.88292 11.0999 9.1034 10.9142 9.28911C10.7285 9.47483 10.508 9.62215 10.2653 9.72266C10.0227 9.82317 9.76261 9.87491 9.49996 9.87491C9.23732 9.87491 8.97724 9.82317 8.73459 9.72266C8.49194 9.62215 8.27146 9.47483 8.08574 9.28911C7.90002 9.1034 7.7527 8.88292 7.65219 8.64026C7.55168 8.39761 7.49995 8.13754 7.49995 7.87489V7.34989ZM2.60104 8.5048C2.50926 8.22823 2.52388 7.90091 2.64182 7.58319L4.2262 3.32562C4.26205 3.23019 4.3261 3.14791 4.40982 3.08974C4.49355 3.03157 4.59299 3.00025 4.69495 2.99994H7.19807L6.56831 6.56816C6.52282 6.82633 6.49996 7.08798 6.49996 7.35012V7.87489C6.49989 8.35008 6.33067 8.80972 6.0226 9.17151C5.71452 9.5333 5.28772 9.7736 4.81862 9.84939C4.34951 9.92518 3.86875 9.8315 3.46242 9.58513C3.05609 9.33876 2.75074 8.95579 2.60104 8.5048ZM19.4999 19.4999C19.4995 19.8976 19.3413 20.2789 19.0601 20.5601C18.7789 20.8413 18.3976 20.9995 17.9999 20.9999H5.99995C5.60225 20.9995 5.22098 20.8413 4.93977 20.5601C4.65856 20.2789 4.50038 19.8976 4.49995 19.4999V10.8749C4.99515 10.8747 5.4826 10.752 5.91882 10.5176C6.35504 10.2832 6.72646 9.94448 6.99993 9.53164C7.27328 9.9446 7.64467 10.2834 8.08093 10.5178C8.51718 10.7522 9.0047 10.8749 9.49994 10.8749C9.99518 10.8749 10.4827 10.7522 10.919 10.5178C11.3552 10.2834 11.7266 9.9446 11.9999 9.53164C12.2733 9.9446 12.6447 10.2834 13.0809 10.5178C13.5172 10.7522 14.0047 10.8749 14.5 10.8749C14.9952 10.8749 15.4827 10.7522 15.919 10.5178C16.3552 10.2834 16.7266 9.9446 17 9.53164C17.2734 9.94448 17.6449 10.2832 18.0811 10.5176C18.5173 10.752 19.0047 10.8747 19.4999 10.8749V19.4999ZM21.3989 8.5048C21.2492 8.95579 20.9438 9.33876 20.5375 9.58513C20.1311 9.8315 19.6504 9.92518 19.1813 9.84939C18.7122 9.7736 18.2854 9.5333 17.9773 9.17151C17.6692 8.80972 17.5 8.35008 17.4999 7.87489V7.34989C17.4999 7.08774 17.4771 6.82609 17.4316 6.56792L16.8018 2.99989H19.3049C19.4069 3.00019 19.5063 3.0315 19.59 3.08964C19.6738 3.14779 19.7378 3.23003 19.7737 3.32544L21.3577 7.583C21.476 7.90091 21.4907 8.22814 21.3989 8.5048Z" fill="#041E42"/>
<path d="M16.1802 14.2214L13.7063 13.6858L12.4322 11.4984C12.3882 11.4228 12.3251 11.3601 12.2493 11.3165C12.1735 11.2729 12.0875 11.25 12.0001 11.25C11.9126 11.25 11.8267 11.2729 11.7509 11.3165C11.675 11.3601 11.612 11.4228 11.568 11.4984L10.2938 13.6858L7.81969 14.2214C7.73419 14.2399 7.65503 14.2805 7.59012 14.3391C7.52522 14.3978 7.47683 14.4724 7.44979 14.5556C7.42275 14.6388 7.418 14.7276 7.43602 14.8132C7.45405 14.8988 7.49421 14.9782 7.5525 15.0434L9.23953 16.9312L8.98439 19.4498C8.9756 19.5368 8.98977 19.6246 9.02551 19.7044C9.06125 19.7842 9.11729 19.8532 9.18806 19.9046C9.25882 19.956 9.34182 19.9879 9.42878 19.9972C9.51574 20.0065 9.60361 19.9928 9.68363 19.9576L12 18.9367L14.3165 19.9575C14.3965 19.9927 14.4844 20.0064 14.5713 19.9971C14.6583 19.9879 14.7413 19.9559 14.812 19.9045C14.8828 19.8531 14.9388 19.7841 14.9746 19.7043C15.0103 19.6245 15.0245 19.5367 15.0157 19.4497L14.7606 16.9312L16.4473 15.0435C16.5056 14.9783 16.5458 14.8989 16.5638 14.8133C16.5818 14.7277 16.5771 14.6389 16.55 14.5557C16.523 14.4725 16.4746 14.3979 16.4097 14.3392C16.3448 14.2806 16.2656 14.24 16.1801 14.2215L16.1802 14.2214ZM13.8682 16.4289C13.822 16.4807 13.787 16.5416 13.7656 16.6076C13.7441 16.6736 13.7366 16.7434 13.7435 16.8125L13.9342 18.6963L12.2016 17.9328C12.1381 17.9048 12.0695 17.8904 12 17.8904C11.9306 17.8904 11.862 17.9048 11.7985 17.9328L10.066 18.6962L10.2567 16.8125C10.2636 16.7434 10.2561 16.6736 10.2346 16.6076C10.2131 16.5416 10.1782 16.4807 10.1319 16.4289L8.87039 15.0173L10.7207 14.6167C10.7886 14.6019 10.8527 14.5733 10.9089 14.5325C10.9651 14.4916 11.0122 14.4396 11.0472 14.3796L12 12.7433L12.9529 14.3796C12.9879 14.4396 13.035 14.4916 13.0912 14.5324C13.1474 14.5732 13.2115 14.6019 13.2794 14.6166L15.1297 15.0173L13.8682 16.4289Z" fill="#041E42"/>
</svg>
