<svg width="24" height="18" viewBox="0 0 24 18" fill="none" xmlns="http://www.w3.org/2000/svg">
<path d="M22.0746 6.91558L21.3964 5.55907C21.1566 5.07944 20.6746 4.78155 20.1386 4.78155H16.2181V1.50044C16.2181 0.725082 15.5873 0.0942383 14.8119 0.0942383H1.4062C0.630797 0.0942383 0 0.725035 0 1.50044V13.6874C0 14.4628 0.630797 15.0936 1.4062 15.0936H2.81241C2.81241 15.8133 3.08452 16.4706 3.53081 16.9685H0.46875C0.209859 16.9685 0 17.1784 0 17.4373C0 17.6961 0.209859 17.906 0.46875 17.906H23.5303C23.7892 17.906 23.9991 17.6961 23.9991 17.4373C23.9991 17.1784 23.7892 16.9685 23.5303 16.9685H22.3432C22.7895 16.4705 23.0616 15.8133 23.0616 15.0936C23.0616 15.0669 23.0603 15.0403 23.0595 15.0137C23.6062 14.8207 23.999 14.2992 23.999 13.6874V11.0963C23.999 10.5493 24.1073 11.0599 22.0746 6.91558ZM21.3657 7.59391L22.7719 10.4063H18.093V7.59391H21.3657ZM0.937453 11.3438H1.87491V12.2812H0.937453V11.3438ZM5.62477 16.9685C4.59094 16.9685 3.74986 16.1274 3.74986 15.0936C3.74986 14.9659 3.76252 14.8403 3.78783 14.7181C3.96412 13.8493 4.73667 13.2187 5.62477 13.2187C6.51286 13.2187 7.28545 13.8492 7.4617 14.7181C7.46184 14.7188 7.46198 14.7194 7.46212 14.72C7.48706 14.8402 7.49967 14.9659 7.49967 15.0936C7.49967 16.1275 6.65859 16.9685 5.62477 16.9685ZM5.62477 12.2812C4.42378 12.2812 3.36389 13.0506 2.97314 14.1561H1.4062C1.14773 14.1561 0.937453 13.9458 0.937453 13.6874V13.2186H2.34366C2.60255 13.2186 2.81241 13.0087 2.81241 12.7499V10.875C2.81241 10.6161 2.60255 10.4062 2.34366 10.4062H0.937453V1.50044C0.937453 1.24197 1.14773 1.03169 1.4062 1.03169H14.8119C15.0704 1.03169 15.2806 1.24197 15.2806 1.50044C15.2806 1.84914 15.2806 13.0321 15.2806 14.1562H8.27616C7.8847 13.05 6.82523 12.2812 5.62477 12.2812ZM7.71872 16.9685C8.16506 16.4705 8.43713 15.8133 8.43713 15.0936C8.79703 15.0936 17.2835 15.0936 17.4368 15.0936C17.4368 15.8133 17.7089 16.4706 18.1552 16.9685H7.71872ZM20.2492 16.9685C19.2153 16.9685 18.3743 16.1274 18.3743 15.0936C18.3743 14.9659 18.3869 14.8403 18.4122 14.7181C18.5885 13.8493 19.3611 13.2187 20.2492 13.2187C21.1372 13.2187 21.9098 13.8492 22.0861 14.7181C22.0862 14.7188 22.0864 14.7194 22.0865 14.72C22.1115 14.8402 22.1241 14.9659 22.1241 15.0936C22.1241 16.1275 21.283 16.9685 20.2492 16.9685ZM23.0616 13.6874C23.0616 13.8433 22.9847 13.9813 22.8673 14.0666C22.4515 13.0087 21.417 12.2813 20.2492 12.2813C19.0482 12.2813 17.9883 13.0506 17.5975 14.1562H16.218V5.719H20.1385C20.3172 5.719 20.4779 5.81838 20.5578 5.97827L20.8969 6.65646H17.6243C17.3654 6.65646 17.1555 6.86636 17.1555 7.12521V10.8751C17.1555 11.1339 17.3654 11.3438 17.6243 11.3438H23.0616V13.6874Z" fill="#041E42"/>
</svg>
