<svg width="11" height="9" viewBox="0 0 11 9" fill="none" xmlns="http://www.w3.org/2000/svg">
<path d="M9.47559 2.90918C9.47559 3.00684 9.47559 3.08496 9.47559 3.18262C9.47559 5.89746 7.4248 9.00293 3.65527 9.00293C2.4834 9.00293 1.40918 8.6709 0.510742 8.08496C0.666992 8.10449 0.823242 8.12402 0.999023 8.12402C1.95605 8.12402 2.83496 7.79199 3.53809 7.24512C2.63965 7.22559 1.87793 6.63965 1.62402 5.81934C1.76074 5.83887 1.87793 5.8584 2.01465 5.8584C2.19043 5.8584 2.38574 5.81934 2.54199 5.78027C1.60449 5.58496 0.901367 4.76465 0.901367 3.76855V3.74902C1.1748 3.90527 1.50684 3.9834 1.83887 4.00293C1.27246 3.63184 0.920898 3.00684 0.920898 2.30371C0.920898 1.91309 1.01855 1.56152 1.19434 1.26855C2.20996 2.49902 3.7334 3.31934 5.43262 3.41699C5.39355 3.26074 5.37402 3.10449 5.37402 2.94824C5.37402 1.81543 6.29199 0.897461 7.4248 0.897461C8.01074 0.897461 8.53809 1.13184 8.92871 1.54199C9.37793 1.44434 9.82715 1.26855 10.2178 1.03418C10.0615 1.52246 9.74902 1.91309 9.31934 2.16699C9.72949 2.12793 10.1396 2.01074 10.4912 1.85449C10.2178 2.26465 9.86621 2.61621 9.47559 2.90918Z" fill="#041E42"/>
</svg>
