<svg width="10" height="10" viewBox="0 0 10 10" fill="none" xmlns="http://www.w3.org/2000/svg">
<path d="M9.4718 3.96774L9.47165 3.96773L6.58494 3.70565L6.28818 3.67871L6.17114 3.40468L5.03065 0.734561C5.03063 0.734515 5.03061 0.734468 5.03059 0.734421C5.02476 0.720991 5.01307 0.713876 5.00001 0.713876C4.98662 0.713876 4.97554 0.721203 4.97029 0.733506L4.97019 0.733745L3.82934 3.40468L3.7123 3.67871L3.41554 3.70565L0.529118 3.96766C0.529072 3.96766 0.529026 3.96767 0.52898 3.96767C0.516448 3.96888 0.505206 3.97714 0.50058 3.99058C0.496573 4.00359 0.50063 4.01705 0.510216 4.02548L9.4718 3.96774ZM9.4718 3.96774C9.48411 3.96885 9.49489 3.97697 9.49918 3.98974C9.50362 4.00342 9.49955 4.01685 9.48981 4.02548C9.48977 4.02552 9.48973 4.02556 9.48969 4.02559L7.30769 5.93889L7.08426 6.13481L7.15005 6.4246L7.79333 9.25783C7.79334 9.25788 7.79336 9.25793 7.79337 9.25799C7.79659 9.2725 7.79101 9.28503 7.78107 9.29222L7.78064 9.29252C7.76985 9.30034 7.75611 9.30093 7.74475 9.29414L5.25614 7.80586L5.00004 7.6527L4.74392 7.80584L2.25471 9.2942L2.25457 9.29429C2.24926 9.29746 2.24384 9.29886 2.23828 9.29886C2.23141 9.29886 2.22546 9.29694 2.21995 9.29293L2.21896 9.29222C2.20901 9.28502 2.20342 9.27247 2.20667 9.25793C2.20668 9.25789 2.20669 9.25786 2.20669 9.25783L2.84997 6.4246L2.91577 6.13481L2.69234 5.93889L0.510252 4.02552L9.4718 3.96774Z" fill="white" stroke="#041E42" stroke-width="0.998064"/>
</svg>
