<svg width="71" height="71" viewBox="0 0 71 71" fill="none" xmlns="http://www.w3.org/2000/svg">
<circle cx="35" cy="36" r="35" fill="#041E42"/>
<path d="M25.592 39.12H31.512L31.144 37.52H25.96L25.592 39.12ZM28.52 33.968L30.296 38.128L30.344 38.592L31.864 42H33.992L28.52 30.176L23.048 42H25.176L26.728 38.496L26.76 38.08L28.52 33.968ZM35.8753 41.184C35.8753 41.4827 35.9819 41.744 36.1953 41.968C36.4086 42.192 36.6753 42.304 36.9953 42.304C37.3153 42.304 37.5819 42.192 37.7953 41.968C38.0193 41.744 38.1313 41.4827 38.1313 41.184C38.1313 40.8747 38.0193 40.6133 37.7953 40.4C37.5819 40.176 37.3153 40.064 36.9953 40.064C36.6753 40.064 36.4086 40.176 36.1953 40.4C35.9819 40.6133 35.8753 40.8747 35.8753 41.184ZM39.5811 32.544H42.5251V42H44.4291V32.544H47.3891V30.8H39.5811V32.544Z" fill="white"/>
<circle cx="61" cy="10" r="10" fill="white"/>
<g clip-path="url(#clip0_1_1484)">
<path d="M67.8936 8.43159C67.6882 8.2937 67.5027 8.1283 67.3423 7.93996C67.3542 7.67774 67.4069 7.41898 67.4985 7.17304C67.6707 6.59004 67.8852 5.86448 67.4719 5.29674C67.0555 4.72448 66.295 4.70527 65.6839 4.68965C65.4269 4.69991 65.1698 4.67228 64.9208 4.60761C64.7839 4.39286 64.6793 4.15915 64.6106 3.91394C64.4067 3.3333 64.1527 2.61063 63.4725 2.38959C62.8125 2.17509 62.2202 2.58263 61.6979 2.94101C61.4881 3.10859 61.2524 3.24105 61.0002 3.33328C60.7478 3.24116 60.512 3.10867 60.3021 2.94101C59.7798 2.58231 59.1874 2.17606 58.5275 2.38959C57.8475 2.61063 57.5936 3.33294 57.3895 3.9137C57.3209 4.15768 57.2175 4.39053 57.0826 4.60509C56.8328 4.67172 56.5744 4.70015 56.3161 4.68941C55.7051 4.705 54.9445 4.72424 54.5282 5.29647C54.1148 5.86453 54.3293 6.59009 54.5015 7.17314C54.5921 7.4178 54.6452 7.67469 54.6592 7.93521C54.4995 8.1262 54.3134 8.29338 54.1063 8.43162C53.6133 8.80758 53 9.27565 53 9.99995C53 10.7242 53.6133 11.1923 54.1064 11.5683C54.3118 11.7062 54.4973 11.8716 54.6577 12.0599C54.6458 12.3222 54.5931 12.5809 54.5015 12.8269C54.3293 13.4099 54.1148 14.1355 54.5281 14.7032C54.9445 15.2754 55.705 15.2946 56.3161 15.3103C56.5731 15.3 56.8302 15.3276 57.0792 15.3923C57.2161 15.6071 57.3207 15.8408 57.3894 16.086C57.5936 16.6667 57.8475 17.3893 58.5276 17.6104C58.6481 17.6499 58.7741 17.67 58.901 17.67C59.4128 17.67 59.8803 17.3487 60.3022 17.059C60.5121 16.8914 60.7477 16.7589 61 16.6666C61.2524 16.7587 61.4881 16.8912 61.6981 17.0589C62.2203 17.4176 62.8127 17.8235 63.4727 17.6103C64.1526 17.3893 64.4065 16.667 64.6107 16.0862C64.6793 15.8422 64.7827 15.6094 64.9176 15.3948C65.1674 15.3282 65.4258 15.2997 65.6841 15.3105C66.2951 15.2949 67.0557 15.2757 67.472 14.7034C67.8853 14.1354 67.6709 13.4098 67.4987 12.8268C67.4081 12.5821 67.355 12.3252 67.341 12.0647C67.5006 11.8737 67.6868 11.7065 67.8939 11.5683C68.3866 11.1923 69 10.7242 69 9.99995C69 9.27565 68.3867 8.80758 67.8936 8.43159ZM63.9714 8.80465L60.638 12.138C60.3778 12.3983 59.9558 12.3984 59.6954 12.1381C59.6954 12.1381 59.6953 12.138 59.6953 12.138L58.0286 10.4713C57.765 10.2143 57.7596 9.79219 58.0166 9.52855C58.2737 9.26491 58.6957 9.25956 58.9594 9.51658C58.9634 9.52052 58.9674 9.52451 58.9713 9.52855L60.1666 10.7239L63.0286 7.86188C63.2857 7.59824 63.7077 7.59291 63.9714 7.84994C64.235 8.10696 64.2403 8.52904 63.9833 8.79268C63.9794 8.79675 63.9754 8.80071 63.9714 8.80465Z" fill="#443297"/>
</g>
<defs>
<clipPath id="clip0_1_1484">
<rect width="16" height="16" fill="white" transform="translate(53 2)"/>
</clipPath>
</defs>
</svg>
